<svg width="140" height="56" viewBox="0 0 140 56" fill="none" xmlns="http://www.w3.org/2000/svg">
<path fill-rule="evenodd" clip-rule="evenodd" d="M38.5712 16.75L27.0617 39.25H16.251L21.0677 29.925H20.8516C16.8779 35.0835 10.9489 38.4794 2.50098 39.25V30.0541C2.50098 30.0541 7.90529 29.7349 11.0823 26.3947H2.50098V16.7502H12.1455V24.6826L12.362 24.6818L16.3031 16.7502H23.597V24.6323L23.8134 24.632L27.9024 16.75H38.5712Z" fill="black"/>
<path d="M101.334 36.7665H104.44V18.9375H101.334V36.7665Z" fill="black"/>
<path fill-rule="evenodd" clip-rule="evenodd" d="M84.21 36.5845C84.885 36.8651 85.5715 37.0055 86.2694 37.0055C87.4223 37.0055 88.4539 36.7248 89.3642 36.1635C90.2743 35.6022 90.9798 34.8286 91.4804 33.8425C91.981 32.8488 92.2313 31.7224 92.2313 30.4632C92.2313 29.2041 91.9734 28.0777 91.4577 27.0841C90.9418 26.0904 90.225 25.3205 89.3072 24.7744C88.3894 24.2207 87.3464 23.9476 86.1783 23.9552C85.435 23.9552 84.722 24.0993 84.0393 24.3875C83.3567 24.6758 82.7878 25.0854 82.3327 25.6163C82.2975 25.6568 82.2634 25.6976 82.2303 25.7388V18.949H79.1128V36.7666H82.2075L82.2013 35.1021C82.2813 35.2002 82.3669 35.2961 82.4578 35.3899C82.9508 35.8981 83.5349 36.2962 84.21 36.5845ZM87.3958 33.706C86.8875 34.017 86.3073 34.1725 85.6549 34.1725C85.0102 34.1725 84.4185 34.0131 83.88 33.6946C83.3414 33.3684 82.9129 32.9247 82.5943 32.3633C82.2833 31.8021 82.1278 31.1648 82.1278 30.4518C82.1203 29.7388 82.2719 29.1017 82.5829 28.5404C82.9015 27.9715 83.33 27.5316 83.8687 27.2206C84.4072 26.902 85.0027 26.7465 85.6549 26.7541C86.3073 26.7465 86.8875 26.8982 87.3958 27.2092C87.9115 27.5126 88.3059 27.9488 88.579 28.5177C88.8597 29.079 89 29.7237 89 30.4518C89 31.1801 88.8597 31.8248 88.579 32.3861C88.3059 32.9475 87.9115 33.3874 87.3958 33.706Z" fill="black"/>
<path d="M43.071 20.0186H46.6209L49.7964 31.6155L53.1745 20.0186H56.1328L59.7964 31.3828L62.8457 20.0186H66.0997L61.2983 36.7667H58.2377L54.5122 25.6647L51.0924 36.7667H47.9977L43.071 20.0186Z" fill="black"/>
<path fill-rule="evenodd" clip-rule="evenodd" d="M71.3423 37.0623C70.1058 37.07 68.9908 36.7968 67.9971 36.2432C67.011 35.6818 66.2336 34.9043 65.6646 33.9107C65.1034 32.9171 64.8228 31.7831 64.8228 30.5087C64.8228 29.2723 65.111 28.1536 65.6875 27.1523C66.2639 26.1511 67.0451 25.3698 68.0313 24.8085C69.0174 24.2472 70.1171 23.9666 71.3308 23.9666C72.6961 23.9666 73.8908 24.27 74.9148 24.8768C75.9464 25.4836 76.7163 26.3445 77.2245 27.4595C77.7403 28.567 77.9261 29.8375 77.782 31.2711H68.0361C68.0634 31.8422 68.2059 32.3618 68.4636 32.8298C68.7519 33.3456 69.1539 33.7476 69.6696 34.0358C70.1855 34.3241 70.7619 34.4682 71.3991 34.4682C71.8845 34.4606 72.3359 34.3772 72.753 34.218C73.1703 34.0511 73.5229 33.8273 73.8111 33.5466C74.107 33.266 74.3156 32.9475 74.437 32.591H77.691C77.4938 33.4632 77.0994 34.2407 76.5078 34.9233C75.916 35.5985 75.1728 36.1256 74.2776 36.5048C73.3826 36.8841 72.4041 37.07 71.3423 37.0623ZM68.475 28.1422C68.2933 28.4592 68.1673 28.8005 68.0971 29.1662H74.5575C74.5106 28.7042 74.368 28.2832 74.1298 27.9033C73.8566 27.4557 73.485 27.1106 73.0148 26.8679C72.5445 26.6176 72.0135 26.4924 71.4219 26.4924C70.7923 26.4924 70.2196 26.6365 69.7038 26.9248C69.188 27.213 68.7784 27.6188 68.475 28.1422Z" fill="black"/>
<path d="M94.5186 24.2282C94.5186 23.2118 94.7499 22.3092 95.2126 21.5203C95.6752 20.7239 96.3239 20.1057 97.1582 19.6657C98.0001 19.2182 98.9825 18.9868 100.105 18.9717V21.7365C99.5816 21.7441 99.1341 21.854 98.7625 22.0664C98.3984 22.2712 98.1177 22.5708 97.9205 22.9653C97.739 23.3284 97.641 23.7494 97.6266 24.2282H100.037V26.8565H97.6247V36.7665H94.5186V26.8565H92.5161V24.2282H94.5186Z" fill="black"/>
<path fill-rule="evenodd" clip-rule="evenodd" d="M112.336 37.0395C111.069 37.0395 109.935 36.7626 108.934 36.209C107.94 35.6476 107.159 34.874 106.59 33.8879C106.029 32.8942 105.748 31.7679 105.748 30.5086C105.748 29.242 106.029 28.1118 106.59 27.1181C107.159 26.1169 107.94 25.3394 108.934 24.7857C109.935 24.2319 111.069 23.9551 112.336 23.9551C113.61 23.9551 114.748 24.2319 115.749 24.7857C116.758 25.3394 117.543 26.1131 118.104 27.1067C118.666 28.1004 118.95 29.2344 118.958 30.5086C118.95 31.7679 118.666 32.8942 118.104 33.8879C117.551 34.874 116.769 35.6476 115.76 36.209C114.752 36.7626 113.61 37.0395 112.336 37.0395ZM112.336 34.1837C113.003 34.1837 113.595 34.032 114.111 33.7286C114.627 33.4176 115.025 32.9852 115.305 32.4315C115.586 31.8702 115.726 31.2292 115.726 30.5086C115.726 29.7805 115.586 29.1357 115.305 28.5745C115.025 28.0132 114.627 27.5808 114.111 27.2774C113.595 26.9664 113.003 26.8109 112.336 26.8109C111.676 26.8109 111.088 26.9664 110.572 27.2774C110.064 27.5808 109.67 28.0132 109.389 28.5745C109.108 29.1357 108.972 29.7805 108.979 30.5086C108.979 31.2292 109.12 31.8702 109.4 32.4315C109.689 32.9852 110.083 33.4176 110.584 33.7286C111.092 34.032 111.676 34.1837 112.336 34.1837Z" fill="black"/>
<path d="M122.314 24.2283H118.855L122.599 36.7666H125.625L128.087 28.7584L130.745 36.7666H133.726L137.481 24.2283H134.352L132.222 32.0326L129.868 24.2283H126.843L124.5 32.2045L122.314 24.2283Z" fill="black"/>
</svg>
