<svg width="140" height="56" viewBox="0 0 140 56" fill="none" xmlns="http://www.w3.org/2000/svg">
<path d="M49.6152 37.0475H53.7738V29.9184H55.5819L59.9989 37.0475H64.4416L59.5598 29.1952C61.7295 28.5495 63.3568 27.0771 63.3568 24.2875V24.1842C63.3568 20.3614 60.593 18.5791 56.2277 18.5791H49.6152V37.0475ZM53.7738 27.0771V21.782H56.1244C58.1391 21.782 59.2757 22.4278 59.2757 24.3133V24.4167C59.2757 26.199 58.2167 27.0771 56.1244 27.0771H53.7738Z" fill="black"/>
<path d="M71.5795 37.3316C75.2731 37.3316 77.5978 35.7044 78.0369 32.7855H74.4982C74.2657 33.9221 73.4134 34.6712 71.6828 34.6712C69.6422 34.6712 68.4282 33.3797 68.3249 31.1325H78.0628V30.0993C78.0628 25.269 74.9632 23.2285 71.4761 23.2285C67.55 23.2285 64.5278 25.9923 64.5278 30.2542V30.4608C64.5278 34.7745 67.4983 37.3316 71.5795 37.3316ZM68.3765 28.8336C68.6606 26.9222 69.7972 25.8115 71.4761 25.8115C73.2584 25.8115 74.2916 26.793 74.4208 28.8336H68.3765Z" fill="black"/>
<path d="M79.8428 37.0475H83.5623V17.4167H79.8428V37.0475Z" fill="black"/>
<path d="M90.6984 37.3317C92.9201 37.3317 94.2886 36.2985 94.9859 34.9296V37.0476H98.7056V23.5386H94.9859V31.4683C94.9859 33.4573 93.7461 34.4388 92.1711 34.4388C90.5698 34.4388 89.8199 33.5606 89.8199 31.7266V23.5386H86.1008V32.2432C86.1008 35.7819 88.0638 37.3317 90.6984 37.3317Z" fill="black"/>
<path d="M101.245 37.0475H104.991V29.0661C104.991 27.2322 106.153 26.3022 107.599 26.3022C108.917 26.3022 109.717 27.0771 109.717 28.8078V37.0475H113.437V29.0661C113.437 27.2322 114.599 26.3022 116.045 26.3022C117.388 26.3022 118.164 27.0771 118.164 28.8078V37.0475H121.883V28.3945C121.883 24.8041 119.946 23.2285 117.44 23.2285C115.736 23.2285 113.979 23.9517 112.894 25.579C112.249 23.9776 110.906 23.2285 109.123 23.2285C107.108 23.2285 105.662 24.3392 104.991 25.6048V23.5384H101.245V37.0475Z" fill="black"/>
<path d="M130.532 37.3316C134.226 37.3316 136.551 35.7044 136.989 32.7855H133.451C133.218 33.9221 132.366 34.6712 130.635 34.6712C128.595 34.6712 127.381 33.3797 127.278 31.1325H137.016V30.0993C137.016 25.269 133.915 23.2285 130.429 23.2285C126.502 23.2285 123.48 25.9923 123.48 30.2542V30.4608C123.48 34.7745 126.451 37.3316 130.532 37.3316ZM127.329 28.8336C127.614 26.9222 128.75 25.8115 130.429 25.8115C132.211 25.8115 133.244 26.793 133.374 28.8336H127.329Z" fill="black"/>
<path fill-rule="evenodd" clip-rule="evenodd" d="M35.3033 19.684L35.0521 19.2356C34.7283 18.6932 34.2715 18.2425 33.7248 17.9261L21.6888 10.9843C21.1437 10.6682 20.5251 10.5011 19.895 10.5H19.3748C18.7448 10.5011 18.1261 10.6682 17.5811 10.9843L5.54511 17.9441C5.00156 18.2584 4.55004 18.7099 4.23568 19.2535L3.98456 19.7019C3.6684 20.2469 3.50136 20.8656 3.50024 21.4956V35.3972C3.50136 36.0273 3.6684 36.6459 3.98456 37.1909L4.23568 37.6393C4.55817 38.1766 5.00786 38.6263 5.54511 38.9488L17.599 45.8905C18.1414 46.2132 18.7618 46.3808 19.3928 46.3748H19.895C20.5251 46.3737 21.1437 46.2066 21.6888 45.8905L33.7248 38.9309C34.2737 38.6236 34.727 38.1704 35.0342 37.6214L35.3033 37.173C35.6156 36.6264 35.7824 36.0087 35.7876 35.3792V21.4777C35.7865 20.8477 35.6195 20.229 35.3033 19.684ZM19.3748 14.0874H19.895L30.4064 20.1503L19.6439 26.3566L8.88149 20.1503L19.3748 14.0874ZM21.4377 41.8906L31.931 35.8277L32.2001 35.3793V23.2536L21.4377 29.4779V41.8906Z" fill="black"/>
</svg>
